<svg version="1.1" id="Layer_1" xmlns="http://www.w3.org/2000/svg" xmlns:xlink="http://www.w3.org/1999/xlink" x="0px" y="0px"
	 width="100%" viewBox="0 0 2083 840" enable-background="new 0 0 2083 840" xml:space="preserve">
<path fill="#EFE9E4" opacity="1.000000" stroke="none" 
	d="
M1728.000000,1.000000 
	C1846.655518,1.000000 1965.311035,1.000000 2083.983398,1.000000 
	C2083.983398,280.962616 2083.983398,560.925232 2083.983398,840.943970 
	C1389.769165,840.943970 695.538269,840.943970 1.153717,840.943970 
	C1.153717,561.000061 1.153717,281.000031 1.153717,1.000000 
	C93.105209,1.000000 185.096664,1.000000 277.565399,1.468525 
	C278.021698,10.267120 278.002075,18.597197 277.979248,26.927261 
	C277.961060,33.553009 277.959351,33.573570 284.544037,33.568569 
	C328.036896,33.535538 371.529999,33.549587 415.022217,33.361965 
	C419.168365,33.344082 422.147858,34.600620 424.309875,37.904037 
	C430.222412,46.937977 436.598053,55.723877 441.808075,65.150833 
	C451.975372,83.547371 457.307831,103.587425 459.815765,124.377640 
	C461.992889,142.425323 462.641327,160.476364 459.594177,178.532333 
	C453.633972,213.849808 419.869171,235.528198 388.702820,236.088226 
	C370.688141,236.411942 354.329102,231.364288 339.461029,221.131668 
	C326.370148,212.122177 311.725098,207.603729 295.841827,207.646378 
	C276.375214,207.698685 260.501465,215.889725 247.693985,230.183090 
	C243.795349,234.534012 240.598129,239.513443 237.199615,244.045090 
	C243.973526,246.562469 250.155472,248.140350 255.640381,251.037766 
	C270.102905,258.677582 279.928558,271.362091 288.297607,284.764099 
	C309.082520,318.048767 328.958771,351.899323 349.477295,385.352509 
	C359.731476,402.070770 370.593048,418.416565 381.272766,435.249573 
	C383.173309,437.798492 384.980988,440.028687 386.838074,442.202393 
	C386.887543,442.145935 386.747498,442.199982 386.834442,442.533630 
	C396.903778,453.531921 406.257660,464.882050 416.993561,474.724823 
	C442.846893,498.427277 472.417999,502.345642 504.354889,488.511322 
	C518.820312,482.245331 530.792542,472.722260 539.173462,458.963928 
	C539.268005,458.906616 539.235657,458.687836 539.526550,458.506714 
	C540.361023,457.348297 540.904541,456.370972 541.299194,455.205078 
	C541.150391,455.016541 541.421692,455.412933 541.711609,455.255005 
	C543.868103,451.708954 545.734680,448.320831 547.922119,444.350281 
	C545.917542,444.108429 544.974976,443.913147 544.028564,443.892395 
	C514.600647,443.248169 489.538116,433.220093 470.462250,410.015106 
	C462.876282,400.787079 454.990143,391.805847 447.200439,382.770203 
	C447.160278,382.828156 447.290985,382.775177 447.213409,382.434814 
	C443.086639,376.234222 438.764313,370.541870 435.039185,364.482391 
	C423.682098,346.008240 412.555176,327.392548 401.296021,308.575439 
	C401.115265,308.214081 400.977203,308.109283 400.761383,307.659729 
	C392.901062,292.597412 385.118469,277.879822 376.752472,262.058990 
	C379.564514,262.309692 380.669495,262.293701 381.722076,262.520721 
	C388.374817,263.955688 394.947906,266.107819 401.673035,266.797791 
	C427.362427,269.433380 452.876831,269.119843 477.320007,259.249298 
	C480.947937,257.784302 483.748810,258.389404 487.161987,259.684052 
	C496.283783,263.144073 505.593903,266.107697 514.831177,269.219238 
	C514.833191,269.169891 514.745239,269.214874 514.972839,269.481812 
	C532.580688,275.335266 550.559387,277.810150 568.651428,278.750153 
	C594.748291,280.105988 620.821716,279.415588 647.550415,273.400818 
	C647.550415,345.116699 647.550415,416.203522 647.550415,487.619690 
	C675.020081,487.619690 701.501282,487.481720 727.978638,487.740234 
	C733.059814,487.789825 734.146667,485.991425 734.093323,481.388763 
	C733.813354,457.236176 733.692322,433.080688 733.684082,408.926178 
	C733.642029,285.640564 733.675049,162.354965 733.558716,39.069454 
	C733.554016,34.105381 735.423462,32.784946 740.049072,32.808102 
	C775.367310,32.984894 810.686279,33.021881 846.005066,33.031574 
	C885.654297,33.042454 925.303467,32.955502 964.952637,33.002274 
	C967.554199,33.005341 970.154907,33.784424 972.882080,34.520279 
	C995.496277,62.920357 1007.870117,95.040276 1011.247070,130.738327 
	C1011.701477,135.541595 1012.472656,140.384552 1012.246704,145.168976 
	C1011.660339,157.588242 1012.273315,170.386658 1009.411377,182.314835 
	C1001.171448,216.657471 969.482239,235.437302 938.958679,236.046371 
	C921.646973,236.391830 905.893311,231.446075 891.373840,221.945618 
	C881.052490,215.192154 870.177368,209.840683 857.499146,208.288040 
	C835.919861,205.645309 817.141174,210.866928 801.785522,226.422058 
	C796.549683,231.725891 792.280823,237.984314 787.516357,243.872879 
	C794.396545,246.350372 800.296326,247.755249 805.499573,250.486923 
	C819.646423,257.914001 829.461426,270.108643 837.820618,283.172729 
	C854.496399,309.234436 870.545959,335.699921 886.650146,362.122986 
	C895.224487,376.191376 903.803223,390.287903 911.603210,404.789551 
	C921.207886,422.646362 929.404297,441.271606 939.255310,458.982971 
	C975.436890,524.034485 1022.699158,580.009827 1079.784668,627.655457 
	C1119.719116,660.986267 1163.264160,688.737427 1210.336060,711.005554 
	C1254.148804,731.731873 1299.806519,746.860229 1347.149536,756.891479 
	C1377.787231,763.383118 1408.865112,767.350647 1440.117310,768.686218 
	C1476.392456,770.236267 1512.787598,769.854980 1548.763672,764.543518 
	C1574.867920,760.689514 1600.880127,755.582153 1626.517456,749.328674 
	C1676.058472,737.244568 1722.817383,717.786804 1767.546997,693.298767 
	C1810.564575,669.747986 1849.410522,640.398804 1886.547241,608.644165 
	C1906.755127,591.364807 1925.063721,572.359802 1939.087158,549.502747 
	C1946.844849,536.858337 1952.134033,523.257324 1951.371460,508.548157 
	C1950.263672,487.176208 1941.609619,468.653717 1925.724609,453.905518 
	C1917.558594,446.323730 1908.173584,440.722870 1897.412354,437.672852 
	C1894.904907,436.962158 1891.696533,436.425446 1891.514160,440.555725 
	C1891.375610,443.691650 1891.660645,446.876648 1892.061646,450.000732 
	C1893.710938,462.850800 1892.177734,475.539429 1886.469727,486.896759 
	C1881.130127,497.520782 1873.968750,507.314545 1866.923584,516.973694 
	C1858.594849,528.392700 1850.340454,540.057739 1840.563110,550.175659 
	C1830.315063,560.780762 1818.543335,569.980530 1807.013306,579.267700 
	C1764.965820,613.136230 1718.612793,639.736328 1668.432983,659.512512 
	C1628.848022,675.113220 1587.963867,686.289368 1545.642822,691.212158 
	C1522.376709,693.918457 1498.946655,695.860352 1475.542847,696.564209 
	C1449.265259,697.354370 1422.978638,695.404846 1396.997559,691.074829 
	C1378.154907,687.934509 1359.080811,685.305054 1340.747437,680.171082 
	C1303.156250,669.644470 1267.409912,654.171753 1233.131104,635.459106 
	C1171.505615,601.817749 1118.140991,557.943909 1072.296509,504.868317 
	C1043.502197,471.532471 1017.279541,436.264679 996.655823,397.273773 
	C973.650085,353.779205 951.722168,309.714417 929.352112,265.884033 
	C928.790588,264.783844 928.544983,263.522400 928.067810,262.081879 
	C929.135193,261.931793 929.829041,261.628754 930.397461,261.784332 
	C945.358643,265.879272 960.402893,267.998749 976.097778,267.699066 
	C989.298340,267.447052 1002.188171,266.798370 1015.035828,263.642395 
	C1039.669189,257.591370 1059.513062,244.184998 1074.491211,224.110352 
	C1095.619995,195.792252 1101.633789,163.294495 1097.029297,128.919312 
	C1092.307251,93.666664 1076.930664,63.342201 1051.449341,38.297527 
	C1050.219238,37.088543 1049.487305,35.372555 1048.958496,33.696053 
	C1053.212891,33.315895 1057.032227,32.972038 1060.851562,32.971893 
	C1224.597534,32.965637 1388.343628,32.989071 1552.089600,33.019115 
	C1554.419189,33.019543 1556.760376,33.328018 1559.075928,33.179508 
	C1563.058594,32.924076 1564.200073,34.698849 1564.148682,38.534332 
	C1563.954712,53.024143 1564.043701,67.517731 1564.024292,82.009903 
	C1564.017212,87.290909 1562.746826,88.117470 1557.379639,87.167877 
	C1552.984497,86.390228 1548.508667,85.678497 1544.063110,85.644455 
	C1528.699707,85.526787 1513.451294,87.010490 1498.795776,91.783249 
	C1483.406982,96.794823 1468.642212,103.200783 1456.649902,115.111588 
	C1455.228638,116.467094 1454.105835,117.709801 1452.671265,119.066330 
	C1445.009033,129.985504 1437.390747,140.622299 1430.437500,151.677444 
	C1427.575684,156.227707 1426.354126,161.778458 1423.996094,166.686630 
	C1422.192505,170.440964 1420.652954,170.341125 1418.320801,166.609146 
	C1418.203613,166.238586 1418.085205,166.119720 1417.933105,165.626678 
	C1413.492920,156.526108 1409.576294,147.505142 1404.553101,139.149460 
	C1398.578247,129.211044 1391.774780,119.739883 1382.155762,112.816536 
	C1382.132568,112.871941 1382.239380,112.816811 1382.113770,112.507080 
	C1380.188965,110.726501 1378.484131,109.118683 1376.576416,107.805588 
	C1353.894165,92.193588 1328.449707,85.930183 1301.245850,85.509125 
	C1284.977661,85.257339 1269.114258,87.383957 1253.742065,92.840759 
	C1234.312622,99.737740 1217.398071,110.733826 1202.491211,124.804367 
	C1189.220093,137.330948 1178.370605,151.774963 1169.727905,168.124313 
	C1169.475586,168.412918 1169.439453,168.575638 1169.187622,168.970245 
	C1166.860840,173.710190 1164.749878,178.218231 1162.713135,182.769150 
	C1162.787476,182.812027 1162.692139,182.669418 1162.403809,182.860626 
	C1161.565796,184.546768 1161.015869,186.041718 1160.503418,187.550583 
	C1160.540894,187.564484 1160.483398,187.553696 1160.235840,187.740997 
	C1159.489380,189.292236 1158.990479,190.656189 1158.256958,192.278015 
	C1157.907349,192.980667 1157.792236,193.425461 1157.446777,194.122360 
	C1153.240112,208.386230 1148.564087,222.244888 1145.455933,236.446671 
	C1141.102783,256.336639 1140.656372,276.669891 1141.212402,296.988037 
	C1141.827881,319.482941 1144.922974,341.589478 1151.779663,363.338623 
	C1151.860840,363.727051 1151.961060,363.862946 1152.062500,364.399292 
	C1157.153687,381.848602 1163.648926,398.279724 1173.459717,413.530884 
	C1173.691895,413.848907 1173.844360,413.924469 1174.084229,414.344299 
	C1180.226807,423.183655 1185.836060,432.045288 1192.445801,440.084290 
	C1201.422607,451.002289 1211.867432,460.487946 1224.219482,468.185120 
	C1250.878418,486.208008 1280.152222,493.894318 1311.855713,492.733643 
	C1329.054688,492.104004 1345.727051,489.166992 1360.187988,479.108765 
	C1372.951050,470.231567 1382.630493,459.001923 1385.009521,442.423950 
	C1383.254883,442.293304 1381.805786,442.129761 1380.353027,442.085724 
	C1362.999756,441.559784 1345.908447,439.501801 1329.173706,434.543884 
	C1299.282959,425.688293 1275.431763,408.650635 1258.115601,382.708679 
	C1235.886108,349.406036 1229.305786,311.607056 1227.225342,272.656860 
	C1225.857788,247.052780 1229.022827,221.823547 1234.886597,196.911789 
	C1240.325806,173.804138 1249.357300,152.322205 1264.141602,133.551147 
	C1278.284058,115.595184 1296.705078,107.595459 1319.482300,111.073853 
	C1341.040039,114.366005 1357.020752,126.373184 1368.959229,144.197083 
	C1388.945679,174.035873 1396.392578,207.598648 1397.923340,242.839294 
	C1398.087280,246.611694 1398.747803,248.073685 1402.893188,247.979767 
	C1414.717896,247.711914 1426.553345,247.944168 1438.384644,247.938339 
	C1440.156006,247.937469 1441.927368,247.714661 1442.234375,247.693832 
	C1444.971313,229.480179 1446.701416,211.909805 1450.409912,194.767410 
	C1455.430664,171.559158 1465.421387,150.436050 1481.776733,132.753311 
	C1501.437866,111.496780 1532.062622,104.514381 1558.684326,115.205658 
	C1561.863281,116.482346 1564.245850,117.751503 1564.239502,122.230316 
	C1564.072266,241.215057 1564.085327,360.200073 1564.087524,479.185028 
	C1564.087646,481.162231 1564.334229,483.139404 1564.489502,485.506592 
	C1566.178711,486.285248 1567.843140,487.007416 1569.509888,487.012665 
	C1594.837158,487.092773 1620.164673,487.083282 1645.492188,487.075928 
	C1646.920288,487.075500 1648.348389,486.911926 1650.074951,486.805939 
	C1650.074951,483.707367 1650.074951,481.054718 1650.074951,478.402069 
	C1650.073364,386.589813 1650.077393,294.777557 1650.067871,202.965286 
	C1650.062012,146.979340 1650.035767,90.993378 1650.351074,34.732719 
	C1653.609863,34.181255 1656.535889,33.672249 1659.463135,33.664936 
	C1680.565063,33.612228 1701.667236,33.663754 1722.769409,33.674595 
	C1725.435425,33.675964 1728.220947,34.099895 1728.146362,29.873549 
	C1727.976440,20.251171 1728.034546,10.624767 1728.000000,1.000000 
z"/>
<path fill="#3B1730" opacity="1.000000" stroke="none" 
	d="
M1173.996704,414.000000 
	C1173.844360,413.924469 1173.691895,413.848907 1173.781006,413.339233 
	C1174.188232,412.168152 1174.726685,411.239746 1174.461914,410.723816 
	C1171.780396,405.501404 1168.718140,400.462097 1166.252930,395.144104 
	C1162.925781,387.966858 1160.408569,380.393463 1156.775513,373.388397 
	C1155.166138,370.285248 1156.801270,365.463867 1152.061401,363.998871 
	C1151.961060,363.862946 1151.860840,363.727051 1152.072510,363.088043 
	C1152.339600,361.012238 1152.578003,359.366272 1152.193481,357.881622 
	C1151.303223,354.443634 1149.519531,351.145813 1149.155396,347.680084 
	C1148.147461,338.085846 1147.650146,328.436737 1147.015015,318.805115 
	C1146.758789,314.920898 1147.904663,310.810547 1144.526611,307.525604 
	C1143.905762,306.921844 1144.110107,305.314667 1144.178589,304.185455 
	C1144.388306,300.725433 1144.688354,297.269958 1145.005615,293.817535 
	C1145.995239,283.046387 1143.740967,272.296021 1145.821655,261.407410 
	C1148.308350,248.394821 1149.028564,235.054245 1151.112549,221.950912 
	C1152.094971,215.773193 1154.825806,209.889084 1156.077881,203.732346 
	C1156.734009,200.506104 1160.826050,197.702240 1157.677124,193.870270 
	C1157.792236,193.425461 1157.907349,192.980667 1158.622559,192.241638 
	C1159.642944,190.482834 1160.063110,189.018250 1160.483398,187.553680 
	C1160.483398,187.553696 1160.540894,187.564484 1160.913574,187.620712 
	C1161.755005,186.007767 1162.223633,184.338608 1162.692139,182.669434 
	C1162.692139,182.669418 1162.787476,182.812027 1163.080566,182.798767 
	C1165.261597,179.887695 1167.394653,177.112442 1168.931396,174.039001 
	C1169.669678,172.562576 1169.281372,170.522934 1169.403320,168.738358 
	C1169.439453,168.575638 1169.475586,168.412918 1170.110107,168.118103 
	C1172.119507,166.803833 1173.897949,165.866470 1174.877319,164.396652 
	C1178.940552,158.298782 1181.683105,150.801987 1186.975708,146.187668 
	C1192.302490,141.543579 1195.555298,135.856857 1199.738159,130.632202 
	C1201.583008,128.327881 1203.962402,126.423462 1206.232910,124.494888 
	C1209.126221,122.037125 1212.142212,119.722580 1215.128174,117.375488 
	C1219.431519,113.993080 1223.338501,109.766365 1228.160400,107.457382 
	C1237.202271,103.127670 1246.800415,99.968460 1256.123169,96.212746 
	C1260.555664,94.427109 1264.711304,91.795341 1269.842896,92.588600 
	C1270.546997,92.697456 1271.342896,91.960854 1272.133423,91.809265 
	C1274.921387,91.274620 1277.728027,90.839325 1280.522461,90.337090 
	C1282.666382,89.951775 1284.814209,89.573975 1286.937134,89.091087 
	C1288.026489,88.843307 1289.084595,88.004387 1290.123535,88.059509 
	C1301.590820,88.667862 1313.051392,89.397652 1324.513062,90.107048 
	C1324.835815,90.127022 1325.157349,90.266144 1325.467041,90.382500 
	C1329.363403,91.846069 1333.197754,93.510002 1337.169434,94.726967 
	C1340.852417,95.855515 1344.833740,96.105766 1348.411011,97.462013 
	C1354.182007,99.649887 1359.761230,102.359703 1365.357910,104.984375 
	C1368.454224,106.436432 1371.869751,107.671616 1374.321167,109.904854 
	C1376.770630,112.136269 1378.970825,113.514427 1382.239380,112.816811 
	C1382.239380,112.816811 1382.132568,112.871941 1382.113037,113.201797 
	C1386.018799,118.806412 1389.875610,124.134163 1393.892944,129.337997 
	C1396.740112,133.025803 1400.351685,136.229248 1402.654663,140.208755 
	C1407.139893,147.958725 1410.897217,156.127579 1415.101318,164.045837 
	C1415.581299,164.949829 1416.989136,165.361130 1417.966797,166.000854 
	C1418.085205,166.119720 1418.203613,166.238586 1418.024414,166.829071 
	C1418.175415,169.429718 1418.624023,171.558762 1419.072754,173.687790 
	C1419.708252,173.839081 1420.343750,173.990372 1420.979370,174.141678 
	C1422.769531,171.954987 1424.902466,169.965286 1426.292236,167.548370 
	C1433.264526,155.423340 1440.082520,143.208817 1446.865479,130.976318 
	C1449.044678,127.046059 1450.951538,122.964745 1452.983032,118.952538 
	C1454.105835,117.709801 1455.228638,116.467094 1457.030884,115.112038 
	C1458.666626,114.787819 1459.787354,114.826035 1460.552368,114.323181 
	C1465.195190,111.271179 1469.613647,107.848793 1474.407104,105.067383 
	C1476.755981,103.704506 1479.867676,103.731064 1482.430298,102.646965 
	C1488.353027,100.141357 1494.076660,97.157379 1500.031250,94.737129 
	C1503.144409,93.471771 1506.532227,92.633293 1509.871948,92.228539 
	C1515.825684,91.507019 1521.838013,91.273788 1527.822021,90.789871 
	C1528.271240,90.753540 1528.667114,90.275536 1529.127686,90.124321 
	C1531.359131,89.391647 1533.634033,88.019379 1535.839355,88.115326 
	C1544.324951,88.484497 1552.787842,89.358131 1561.263672,89.982208 
	C1565.240601,90.275024 1567.038940,88.370995 1567.021484,84.342064 
	C1566.953247,68.510742 1567.057129,52.678276 1566.886353,36.848503 
	C1566.871216,35.434444 1565.630615,33.187782 1564.456299,32.781597 
	C1559.892700,31.203138 1555.135010,29.204565 1550.433594,29.163006 
	C1516.439941,28.862494 1482.442383,29.001762 1448.446045,29.001757 
	C1414.449707,29.001751 1380.453491,29.001757 1346.457153,29.001757 
	C1312.627441,29.001757 1278.797852,29.001757 1244.968140,29.001757 
	C1210.971802,29.001757 1176.960693,28.373035 1142.983521,29.179657 
	C1109.412476,29.976633 1075.871460,27.016811 1042.199463,31.469114 
	C1020.743591,34.306145 998.607666,32.014473 976.776794,31.967068 
	C975.338562,31.963945 973.860413,31.623545 972.473328,31.201618 
	C970.433655,30.581104 968.454041,29.087154 966.457825,29.102831 
	C944.497803,29.275337 922.539917,29.893671 900.580688,29.929735 
	C883.455383,29.957859 866.329834,29.117868 849.202881,29.048883 
	C812.540771,28.901213 775.877686,28.989807 739.215088,29.054731 
	C737.871826,29.057110 735.997314,29.408596 735.282593,30.315941 
	C732.650452,33.657223 730.842224,37.071980 730.848633,41.905464 
	C731.040771,186.722839 731.005188,331.540497 731.003967,476.358124 
	C731.003906,482.991455 730.997681,482.998901 724.601807,482.999878 
	C701.937622,483.003326 679.273376,483.002808 656.609192,483.000244 
	C650.005127,482.999481 649.996643,482.994049 649.996460,476.569000 
	C649.994324,410.909454 649.968994,345.249878 650.061340,279.590454 
	C650.066772,275.719238 649.331116,272.766022 645.535645,271.716461 
	C641.366821,272.513062 637.162170,272.691650 633.009705,273.255280 
	C624.609863,274.395447 616.245667,276.738708 607.853760,276.799469 
	C590.609436,276.924347 573.295959,278.337219 556.097290,275.120392 
	C549.234131,273.836731 542.129639,273.844971 535.136108,273.252411 
	C534.819824,273.225586 534.519531,273.045441 534.202698,272.983856 
	C527.717651,271.723389 521.231323,270.469818 514.745239,269.214874 
	C514.745239,269.214874 514.833191,269.169891 514.813843,268.846649 
	C514.371033,268.064819 514.034485,267.393982 513.510925,267.179260 
	C504.933716,263.661499 496.386597,260.057709 487.706543,256.810455 
	C484.882355,255.753922 481.488342,254.711594 478.718597,255.319565 
	C472.118225,256.768402 465.828094,259.607941 459.238800,261.135986 
	C451.827393,262.854675 444.265625,264.247498 436.694489,264.865265 
	C428.999725,265.493134 421.213715,264.979828 413.467834,265.009796 
	C402.914185,265.050629 392.899475,262.359528 382.870605,259.432129 
	C380.624359,258.776428 377.647003,259.539978 375.428955,260.564941 
	C374.800995,260.855133 375.056213,264.709595 375.946777,266.372131 
	C383.232574,279.973694 390.743408,293.455261 398.288025,306.916077 
	C398.646027,307.554810 399.966736,307.654022 400.839111,308.004486 
	C400.977203,308.109283 401.115265,308.214081 401.006958,308.783691 
	C401.820190,311.800415 402.838776,314.370392 403.948120,316.900543 
	C406.209473,322.058350 408.166382,327.392609 410.907135,332.285370 
	C413.760895,337.379913 417.523987,341.955841 420.644653,346.912659 
	C423.954498,352.170044 426.755432,357.755066 430.182159,362.929810 
	C434.138580,368.904388 438.431519,374.667938 442.824066,380.332581 
	C443.777435,381.562073 445.774597,381.982239 447.290985,382.775177 
	C447.290985,382.775177 447.160278,382.828156 447.133698,383.188293 
	C448.161102,386.210968 448.762421,389.189667 450.357971,391.473969 
	C454.383148,397.236755 458.767517,402.758453 463.193390,408.226654 
	C464.946625,410.392822 467.171967,412.181580 469.216766,414.105591 
	C471.018036,415.800507 473.274872,417.168518 474.622803,419.159943 
	C479.740082,426.720276 488.637726,429.610535 494.758759,435.878418 
	C494.867645,435.989929 495.052551,436.030792 495.206238,436.094330 
	C501.311798,438.619019 507.273956,441.616974 513.566589,443.525116 
	C519.214783,445.237823 525.216614,445.810944 531.080933,446.774597 
	C534.917114,447.404968 538.786194,447.835205 542.640503,448.355072 
	C542.419800,448.834473 542.199097,449.313843 541.978455,449.793213 
	C541.792847,451.666473 541.607300,453.539703 541.421753,455.412933 
	C541.421692,455.412933 541.150391,455.016541 540.885620,455.162354 
	C540.159180,456.434753 539.697388,457.561279 539.235657,458.687836 
	C539.235657,458.687836 539.268005,458.906616 538.936829,458.816803 
	C537.512573,459.123993 536.085510,459.218201 535.394836,459.980011 
	C533.883606,461.646973 532.859741,463.744476 531.436951,465.504578 
	C524.121338,474.554108 513.675537,479.135468 503.831818,484.513062 
	C499.973633,486.620789 495.848724,489.187866 491.676849,489.537689 
	C486.274750,489.990662 481.167877,493.948425 475.390961,491.152527 
	C474.702240,490.819244 473.229401,492.564240 472.050232,492.689697 
	C469.692505,492.940552 467.265808,492.920776 464.907196,492.657745 
	C463.238892,492.471710 461.277405,490.839661 460.065582,491.342987 
	C454.913544,493.482758 450.414703,490.934937 446.398651,489.079254 
	C433.398773,483.072540 420.799408,476.205139 410.939026,465.409058 
	C405.621155,459.586517 400.601807,453.479706 395.090454,447.850983 
	C392.787628,445.499084 389.556549,444.056183 386.747498,442.199982 
	C386.747498,442.199982 386.887543,442.145935 386.895203,441.805786 
	C385.956268,438.445709 386.578156,434.052155 381.179871,434.930817 
	C370.593048,418.416565 359.731476,402.070770 349.477295,385.352509 
	C328.958771,351.899323 309.082520,318.048767 288.297607,284.764099 
	C279.928558,271.362091 270.102905,258.677582 255.640381,251.037766 
	C250.155472,248.140350 243.973526,246.562469 237.199615,244.045090 
	C240.598129,239.513443 243.795349,234.534012 247.693985,230.183090 
	C260.501465,215.889725 276.375214,207.698685 295.841827,207.646378 
	C311.725098,207.603729 326.370148,212.122177 339.461029,221.131668 
	C354.329102,231.364288 370.688141,236.411942 388.702820,236.088226 
	C419.869171,235.528198 453.633972,213.849808 459.594177,178.532333 
	C462.641327,160.476364 461.992889,142.425323 459.815765,124.377640 
	C457.307831,103.587425 451.975372,83.547371 441.808075,65.150833 
	C436.598053,55.723877 430.222412,46.937977 424.309875,37.904037 
	C422.147858,34.600620 419.168365,33.344082 415.022217,33.361965 
	C371.529999,33.549587 328.036896,33.535538 284.544037,33.568569 
	C277.959351,33.573570 277.961060,33.553009 277.979248,26.927261 
	C278.002075,18.597197 278.021698,10.267120 278.021362,1.468525 
	C761.020935,1.000000 1244.041870,1.000000 1727.531372,1.000000 
	C1728.034546,10.624767 1727.976440,20.251171 1728.146362,29.873549 
	C1728.220947,34.099895 1725.435425,33.675964 1722.769409,33.674595 
	C1701.667236,33.663754 1680.565063,33.612228 1659.463135,33.664936 
	C1656.535889,33.672249 1653.609863,34.181255 1650.030029,34.645672 
	C1648.916260,36.484661 1648.053223,38.135822 1648.052490,39.787323 
	C1647.990723,186.041046 1647.995605,332.294800 1647.994019,478.548553 
	C1647.993896,484.999634 1647.985840,484.998322 1641.420898,485.007507 
	C1615.769165,485.043396 1590.117432,485.080170 1564.465698,485.116608 
	C1564.334229,483.139404 1564.087646,481.162231 1564.087524,479.185028 
	C1564.085327,360.200073 1564.072266,241.215057 1564.239502,122.230316 
	C1564.245850,117.751503 1561.863281,116.482346 1558.684326,115.205658 
	C1532.062622,104.514381 1501.437866,111.496780 1481.776733,132.753311 
	C1465.421387,150.436050 1455.430664,171.559158 1450.409912,194.767410 
	C1446.701416,211.909805 1444.971313,229.480179 1442.234375,247.693832 
	C1441.927368,247.714661 1440.156006,247.937469 1438.384644,247.938339 
	C1426.553345,247.944168 1414.717896,247.711914 1402.893188,247.979767 
	C1398.747803,248.073685 1398.087280,246.611694 1397.923340,242.839294 
	C1396.392578,207.598648 1388.945679,174.035873 1368.959229,144.197083 
	C1357.020752,126.373184 1341.040039,114.366005 1319.482300,111.073853 
	C1296.705078,107.595459 1278.284058,115.595184 1264.141602,133.551147 
	C1249.357300,152.322205 1240.325806,173.804138 1234.886597,196.911789 
	C1229.022827,221.823547 1225.857788,247.052780 1227.225342,272.656860 
	C1229.305786,311.607056 1235.886108,349.406036 1258.115601,382.708679 
	C1275.431763,408.650635 1299.282959,425.688293 1329.173706,434.543884 
	C1345.908447,439.501801 1362.999756,441.559784 1380.353027,442.085724 
	C1381.805786,442.129761 1383.254883,442.293304 1385.009521,442.423950 
	C1382.630493,459.001923 1372.951050,470.231567 1360.187988,479.108765 
	C1345.727051,489.166992 1329.054688,492.104004 1311.855713,492.733643 
	C1280.152222,493.894318 1250.878418,486.208008 1224.199951,467.824646 
	C1217.654053,460.960815 1211.333374,454.721161 1204.964722,448.530640 
	C1203.475830,447.083313 1201.536133,446.023987 1200.296265,444.408356 
	C1193.072632,434.995239 1186.071899,425.410034 1178.774780,416.055481 
	C1177.839966,414.857117 1175.620850,414.660645 1173.996704,414.000000 
M647.825378,72.074760 
	C647.792847,60.752487 647.658752,49.429089 647.784119,38.108566 
	C647.826599,34.272758 646.563904,32.920811 642.582886,32.931129 
	C596.600220,33.050331 550.617126,32.997929 504.634216,33.036156 
	C502.402527,33.038010 500.171204,33.457592 496.395782,33.838371 
	C515.007385,52.085232 528.938232,71.784248 537.748779,95.000572 
	C546.680115,118.535011 549.555298,142.804733 546.531189,167.554932 
	C543.526428,192.146042 533.991333,214.322281 517.280945,233.804153 
	C530.514954,237.488724 543.066956,240.663910 555.800415,242.709534 
	C580.474609,246.673492 605.224670,245.953995 629.835144,241.870285 
	C635.836975,240.874374 641.642639,238.696411 648.394165,236.893677 
	C648.913452,236.134659 649.685364,235.437378 649.889648,234.601395 
	C650.158875,233.499374 649.995605,232.288452 649.995667,231.124344 
	C649.997864,180.387756 650.020081,129.651108 649.912842,78.914757 
	C649.908691,76.941490 648.661072,74.970848 647.825378,72.074760 
z"/>
<path fill="#5BA165" opacity="1.000000" stroke="none" 
	d="
M1048.523438,33.892666 
	C1049.487305,35.372555 1050.219238,37.088543 1051.449341,38.297527 
	C1076.930664,63.342201 1092.307251,93.666664 1097.029297,128.919312 
	C1101.633789,163.294495 1095.619995,195.792252 1074.491211,224.110352 
	C1059.513062,244.184998 1039.669189,257.591370 1015.035828,263.642395 
	C1002.188171,266.798370 989.298340,267.447052 976.097778,267.699066 
	C960.402893,267.998749 945.358643,265.879272 930.397461,261.784332 
	C929.829041,261.628754 929.135193,261.931793 928.067810,262.081879 
	C928.544983,263.522400 928.790588,264.783844 929.352112,265.884033 
	C951.722168,309.714417 973.650085,353.779205 996.655823,397.273773 
	C1017.279541,436.264679 1043.502197,471.532471 1072.296509,504.868317 
	C1118.140991,557.943909 1171.505615,601.817749 1233.131104,635.459106 
	C1267.409912,654.171753 1303.156250,669.644470 1340.747437,680.171082 
	C1359.080811,685.305054 1378.154907,687.934509 1396.997559,691.074829 
	C1422.978638,695.404846 1449.265259,697.354370 1475.542847,696.564209 
	C1498.946655,695.860352 1522.376709,693.918457 1545.642822,691.212158 
	C1587.963867,686.289368 1628.848022,675.113220 1668.432983,659.512512 
	C1718.612793,639.736328 1764.965820,613.136230 1807.013306,579.267700 
	C1818.543335,569.980530 1830.315063,560.780762 1840.563110,550.175659 
	C1850.340454,540.057739 1858.594849,528.392700 1866.923584,516.973694 
	C1873.968750,507.314545 1881.130127,497.520782 1886.469727,486.896759 
	C1892.177734,475.539429 1893.710938,462.850800 1892.061646,450.000732 
	C1891.660645,446.876648 1891.375610,443.691650 1891.514160,440.555725 
	C1891.696533,436.425446 1894.904907,436.962158 1897.412354,437.672852 
	C1908.173584,440.722870 1917.558594,446.323730 1925.724609,453.905518 
	C1941.609619,468.653717 1950.263672,487.176208 1951.371460,508.548157 
	C1952.134033,523.257324 1946.844849,536.858337 1939.087158,549.502747 
	C1925.063721,572.359802 1906.755127,591.364807 1886.547241,608.644165 
	C1849.410522,640.398804 1810.564575,669.747986 1767.546997,693.298767 
	C1722.817383,717.786804 1676.058472,737.244568 1626.517456,749.328674 
	C1600.880127,755.582153 1574.867920,760.689514 1548.763672,764.543518 
	C1512.787598,769.854980 1476.392456,770.236267 1440.117310,768.686218 
	C1408.865112,767.350647 1377.787231,763.383118 1347.149536,756.891479 
	C1299.806519,746.860229 1254.148804,731.731873 1210.336060,711.005554 
	C1163.264160,688.737427 1119.719116,660.986267 1079.784668,627.655457 
	C1022.699158,580.009827 975.436890,524.034485 939.255310,458.982971 
	C929.404297,441.271606 921.207886,422.646362 911.603210,404.789551 
	C903.803223,390.287903 895.224487,376.191376 886.650146,362.122986 
	C870.545959,335.699921 854.496399,309.234436 837.820618,283.172729 
	C829.461426,270.108643 819.646423,257.914001 805.499573,250.486923 
	C800.296326,247.755249 794.396545,246.350372 787.516357,243.872879 
	C792.280823,237.984314 796.549683,231.725891 801.785522,226.422058 
	C817.141174,210.866928 835.919861,205.645309 857.499146,208.288040 
	C870.177368,209.840683 881.052490,215.192154 891.373840,221.945618 
	C905.893311,231.446075 921.646973,236.391830 938.958679,236.046371 
	C969.482239,235.437302 1001.171448,216.657471 1009.411377,182.314835 
	C1012.273315,170.386658 1011.660339,157.588242 1012.246704,145.168976 
	C1012.472656,140.384552 1011.701477,135.541595 1011.247070,130.738327 
	C1007.870117,95.040276 995.496277,62.920357 973.365234,34.456200 
	C998.655945,34.013817 1023.589661,33.953243 1048.523438,33.892666 
z"/>
<path fill="#3E1A33" opacity="1.000000" stroke="none" 
	d="
M1048.958496,33.696053 
	C1023.589661,33.953243 998.655945,34.013817 973.239075,34.138470 
	C970.154907,33.784424 967.554199,33.005341 964.952637,33.002274 
	C925.303467,32.955502 885.654297,33.042454 846.005066,33.031574 
	C810.686279,33.021881 775.367310,32.984894 740.049072,32.808102 
	C735.423462,32.784946 733.554016,34.105381 733.558716,39.069454 
	C733.675049,162.354965 733.642029,285.640564 733.684082,408.926178 
	C733.692322,433.080688 733.813354,457.236176 734.093323,481.388763 
	C734.146667,485.991425 733.059814,487.789825 727.978638,487.740234 
	C701.501282,487.481720 675.020081,487.619690 647.550415,487.619690 
	C647.550415,416.203522 647.550415,345.116699 647.550415,273.400818 
	C620.821716,279.415588 594.748291,280.105988 568.651428,278.750153 
	C550.559387,277.810150 532.580688,275.335266 514.972839,269.481812 
	C521.231323,270.469818 527.717651,271.723389 534.202698,272.983856 
	C534.519531,273.045441 534.819824,273.225586 535.136108,273.252411 
	C542.129639,273.844971 549.234131,273.836731 556.097290,275.120392 
	C573.295959,278.337219 590.609436,276.924347 607.853760,276.799469 
	C616.245667,276.738708 624.609863,274.395447 633.009705,273.255280 
	C637.162170,272.691650 641.366821,272.513062 645.535645,271.716461 
	C649.331116,272.766022 650.066772,275.719238 650.061340,279.590454 
	C649.968994,345.249878 649.994324,410.909454 649.996460,476.569000 
	C649.996643,482.994049 650.005127,482.999481 656.609192,483.000244 
	C679.273376,483.002808 701.937622,483.003326 724.601807,482.999878 
	C730.997681,482.998901 731.003906,482.991455 731.003967,476.358124 
	C731.005188,331.540497 731.040771,186.722839 730.848633,41.905464 
	C730.842224,37.071980 732.650452,33.657223 735.282593,30.315941 
	C735.997314,29.408596 737.871826,29.057110 739.215088,29.054731 
	C775.877686,28.989807 812.540771,28.901213 849.202881,29.048883 
	C866.329834,29.117868 883.455383,29.957859 900.580688,29.929735 
	C922.539917,29.893671 944.497803,29.275337 966.457825,29.102831 
	C968.454041,29.087154 970.433655,30.581104 972.473328,31.201618 
	C973.860413,31.623545 975.338562,31.963945 976.776794,31.967068 
	C998.607666,32.014473 1020.743591,34.306145 1042.199463,31.469114 
	C1075.871460,27.016811 1109.412476,29.976633 1142.983521,29.179657 
	C1176.960693,28.373035 1210.971802,29.001757 1244.968140,29.001757 
	C1278.797852,29.001757 1312.627441,29.001757 1346.457153,29.001757 
	C1380.453491,29.001757 1414.449707,29.001751 1448.446045,29.001757 
	C1482.442383,29.001762 1516.439941,28.862494 1550.433594,29.163006 
	C1555.135010,29.204565 1559.892700,31.203138 1564.456299,32.781597 
	C1565.630615,33.187782 1566.871216,35.434444 1566.886353,36.848503 
	C1567.057129,52.678276 1566.953247,68.510742 1567.021484,84.342064 
	C1567.038940,88.370995 1565.240601,90.275024 1561.263672,89.982208 
	C1552.787842,89.358131 1544.324951,88.484497 1535.839355,88.115326 
	C1533.634033,88.019379 1531.359131,89.391647 1529.127686,90.124321 
	C1528.667114,90.275536 1528.271240,90.753540 1527.822021,90.789871 
	C1521.838013,91.273788 1515.825684,91.507019 1509.871948,92.228539 
	C1506.532227,92.633293 1503.144409,93.471771 1500.031250,94.737129 
	C1494.076660,97.157379 1488.353027,100.141357 1482.430298,102.646965 
	C1479.867676,103.731064 1476.755981,103.704506 1474.407104,105.067383 
	C1469.613647,107.848793 1465.195190,111.271179 1460.552368,114.323181 
	C1459.787354,114.826035 1458.666626,114.787819 1457.329346,114.999237 
	C1468.642212,103.200783 1483.406982,96.794823 1498.795776,91.783249 
	C1513.451294,87.010490 1528.699707,85.526787 1544.063110,85.644455 
	C1548.508667,85.678497 1552.984497,86.390228 1557.379639,87.167877 
	C1562.746826,88.117470 1564.017212,87.290909 1564.024292,82.009903 
	C1564.043701,67.517731 1563.954712,53.024143 1564.148682,38.534332 
	C1564.200073,34.698849 1563.058594,32.924076 1559.075928,33.179508 
	C1556.760376,33.328018 1554.419189,33.019543 1552.089600,33.019115 
	C1388.343628,32.989071 1224.597534,32.965637 1060.851562,32.971893 
	C1057.032227,32.972038 1053.212891,33.315895 1048.958496,33.696053 
z"/>
<path fill="#2A031E" opacity="1.000000" stroke="none" 
	d="
M1564.489502,485.506592 
	C1590.117432,485.080170 1615.769165,485.043396 1641.420898,485.007507 
	C1647.985840,484.998322 1647.993896,484.999634 1647.994019,478.548553 
	C1647.995605,332.294800 1647.990723,186.041046 1648.052490,39.787323 
	C1648.053223,38.135822 1648.916260,36.484661 1649.697754,34.920380 
	C1650.035767,90.993378 1650.062012,146.979340 1650.067871,202.965286 
	C1650.077393,294.777557 1650.073364,386.589813 1650.074951,478.402069 
	C1650.074951,481.054718 1650.074951,483.707367 1650.074951,486.805939 
	C1648.348389,486.911926 1646.920288,487.075500 1645.492188,487.075928 
	C1620.164673,487.083282 1594.837158,487.092773 1569.509888,487.012665 
	C1567.843140,487.007416 1566.178711,486.285248 1564.489502,485.506592 
z"/>
<path fill="#3E1A33" opacity="1.000000" stroke="none" 
	d="
M1382.113770,112.507080 
	C1378.970825,113.514427 1376.770630,112.136269 1374.321167,109.904854 
	C1371.869751,107.671616 1368.454224,106.436432 1365.357910,104.984375 
	C1359.761230,102.359703 1354.182007,99.649887 1348.411011,97.462013 
	C1344.833740,96.105766 1340.852417,95.855515 1337.169434,94.726967 
	C1333.197754,93.510002 1329.363403,91.846069 1325.467041,90.382500 
	C1325.157349,90.266144 1324.835815,90.127022 1324.513062,90.107048 
	C1313.051392,89.397652 1301.590820,88.667862 1290.123535,88.059509 
	C1289.084595,88.004387 1288.026489,88.843307 1286.937134,89.091087 
	C1284.814209,89.573975 1282.666382,89.951775 1280.522461,90.337090 
	C1277.728027,90.839325 1274.921387,91.274620 1272.133423,91.809265 
	C1271.342896,91.960854 1270.546997,92.697456 1269.842896,92.588600 
	C1264.711304,91.795341 1260.555664,94.427109 1256.123169,96.212746 
	C1246.800415,99.968460 1237.202271,103.127670 1228.160400,107.457382 
	C1223.338501,109.766365 1219.431519,113.993080 1215.128174,117.375488 
	C1212.142212,119.722580 1209.126221,122.037125 1206.232910,124.494888 
	C1203.962402,126.423462 1201.583008,128.327881 1199.738159,130.632202 
	C1195.555298,135.856857 1192.302490,141.543579 1186.975708,146.187668 
	C1181.683105,150.801987 1178.940552,158.298782 1174.877319,164.396652 
	C1173.897949,165.866470 1172.119507,166.803833 1170.326172,167.992218 
	C1178.370605,151.774963 1189.220093,137.330948 1202.491211,124.804367 
	C1217.398071,110.733826 1234.312622,99.737740 1253.742065,92.840759 
	C1269.114258,87.383957 1284.977661,85.257339 1301.245850,85.509125 
	C1328.449707,85.930183 1353.894165,92.193588 1376.576416,107.805588 
	C1378.484131,109.118683 1380.188965,110.726501 1382.113770,112.507080 
z"/>
<path fill="#3E1A33" opacity="1.000000" stroke="none" 
	d="
M386.834442,442.533630 
	C389.556549,444.056183 392.787628,445.499084 395.090454,447.850983 
	C400.601807,453.479706 405.621155,459.586517 410.939026,465.409058 
	C420.799408,476.205139 433.398773,483.072540 446.398651,489.079254 
	C450.414703,490.934937 454.913544,493.482758 460.065582,491.342987 
	C461.277405,490.839661 463.238892,492.471710 464.907196,492.657745 
	C467.265808,492.920776 469.692505,492.940552 472.050232,492.689697 
	C473.229401,492.564240 474.702240,490.819244 475.390961,491.152527 
	C481.167877,493.948425 486.274750,489.990662 491.676849,489.537689 
	C495.848724,489.187866 499.973633,486.620789 503.831818,484.513062 
	C513.675537,479.135468 524.121338,474.554108 531.436951,465.504578 
	C532.859741,463.744476 533.883606,461.646973 535.394836,459.980011 
	C536.085510,459.218201 537.512573,459.123993 538.842285,458.874084 
	C530.792542,472.722260 518.820312,482.245331 504.354889,488.511322 
	C472.417999,502.345642 442.846893,498.427277 416.993561,474.724823 
	C406.257660,464.882050 396.903778,453.531921 386.834442,442.533630 
z"/>
<path fill="#3E1A33" opacity="1.000000" stroke="none" 
	d="
M400.761383,307.659729 
	C399.966736,307.654022 398.646027,307.554810 398.288025,306.916077 
	C390.743408,293.455261 383.232574,279.973694 375.946777,266.372131 
	C375.056213,264.709595 374.800995,260.855133 375.428955,260.564941 
	C377.647003,259.539978 380.624359,258.776428 382.870605,259.432129 
	C392.899475,262.359528 402.914185,265.050629 413.467834,265.009796 
	C421.213715,264.979828 428.999725,265.493134 436.694489,264.865265 
	C444.265625,264.247498 451.827393,262.854675 459.238800,261.135986 
	C465.828094,259.607941 472.118225,256.768402 478.718597,255.319565 
	C481.488342,254.711594 484.882355,255.753922 487.706543,256.810455 
	C496.386597,260.057709 504.933716,263.661499 513.510925,267.179260 
	C514.034485,267.393982 514.371033,268.064819 514.811890,268.895996 
	C505.593903,266.107697 496.283783,263.144073 487.161987,259.684052 
	C483.748810,258.389404 480.947937,257.784302 477.320007,259.249298 
	C452.876831,269.119843 427.362427,269.433380 401.673035,266.797791 
	C394.947906,266.107819 388.374817,263.955688 381.722076,262.520721 
	C380.669495,262.293701 379.564514,262.309692 376.752472,262.058990 
	C385.118469,277.879822 392.901062,292.597412 400.761383,307.659729 
z"/>
<path fill="#3E1A33" opacity="1.000000" stroke="none" 
	d="
M1157.446777,194.122360 
	C1160.826050,197.702240 1156.734009,200.506104 1156.077881,203.732346 
	C1154.825806,209.889084 1152.094971,215.773193 1151.112549,221.950912 
	C1149.028564,235.054245 1148.308350,248.394821 1145.821655,261.407410 
	C1143.740967,272.296021 1145.995239,283.046387 1145.005615,293.817535 
	C1144.688354,297.269958 1144.388306,300.725433 1144.178589,304.185455 
	C1144.110107,305.314667 1143.905762,306.921844 1144.526611,307.525604 
	C1147.904663,310.810547 1146.758789,314.920898 1147.015015,318.805115 
	C1147.650146,328.436737 1148.147461,338.085846 1149.155396,347.680084 
	C1149.519531,351.145813 1151.303223,354.443634 1152.193481,357.881622 
	C1152.578003,359.366272 1152.339600,361.012238 1152.091309,362.835480 
	C1144.922974,341.589478 1141.827881,319.482941 1141.212402,296.988037 
	C1140.656372,276.669891 1141.102783,256.336639 1145.455933,236.446671 
	C1148.564087,222.244888 1153.240112,208.386230 1157.446777,194.122360 
z"/>
<path fill="#3E1A33" opacity="1.000000" stroke="none" 
	d="
M541.711670,455.255005 
	C541.607300,453.539703 541.792847,451.666473 541.978455,449.793213 
	C542.199097,449.313843 542.419800,448.834473 542.640503,448.355072 
	C538.786194,447.835205 534.917114,447.404968 531.080933,446.774597 
	C525.216614,445.810944 519.214783,445.237823 513.566589,443.525116 
	C507.273956,441.616974 501.311798,438.619019 495.206238,436.094330 
	C495.052551,436.030792 494.867645,435.989929 494.758759,435.878418 
	C488.637726,429.610535 479.740082,426.720276 474.622803,419.159943 
	C473.274872,417.168518 471.018036,415.800507 469.216766,414.105591 
	C467.171967,412.181580 464.946625,410.392822 463.193390,408.226654 
	C458.767517,402.758453 454.383148,397.236755 450.357971,391.473969 
	C448.762421,389.189667 448.161102,386.210968 447.173889,383.130310 
	C454.990143,391.805847 462.876282,400.787079 470.462250,410.015106 
	C489.538116,433.220093 514.600647,443.248169 544.028564,443.892395 
	C544.974976,443.913147 545.917542,444.108429 547.922119,444.350281 
	C545.734680,448.320831 543.868103,451.708954 541.711670,455.255005 
z"/>
<path fill="#3E1A33" opacity="1.000000" stroke="none" 
	d="
M447.213409,382.434814 
	C445.774597,381.982239 443.777435,381.562073 442.824066,380.332581 
	C438.431519,374.667938 434.138580,368.904388 430.182159,362.929810 
	C426.755432,357.755066 423.954498,352.170044 420.644653,346.912659 
	C417.523987,341.955841 413.760895,337.379913 410.907135,332.285370 
	C408.166382,327.392609 406.209473,322.058350 403.948120,316.900543 
	C402.838776,314.370392 401.820190,311.800415 401.049622,309.040222 
	C412.555176,327.392548 423.682098,346.008240 435.039185,364.482391 
	C438.764313,370.541870 443.086639,376.234222 447.213409,382.434814 
z"/>
<path fill="#3E1A33" opacity="1.000000" stroke="none" 
	d="
M1174.084229,414.344299 
	C1175.620850,414.660645 1177.839966,414.857117 1178.774780,416.055481 
	C1186.071899,425.410034 1193.072632,434.995239 1200.296265,444.408356 
	C1201.536133,446.023987 1203.475830,447.083313 1204.964722,448.530640 
	C1211.333374,454.721161 1217.654053,460.960815 1224.011719,467.543030 
	C1211.867432,460.487946 1201.422607,451.002289 1192.445801,440.084290 
	C1185.836060,432.045288 1180.226807,423.183655 1174.084229,414.344299 
z"/>
<path fill="#3E1A33" opacity="1.000000" stroke="none" 
	d="
M1452.671265,119.066376 
	C1450.951538,122.964745 1449.044678,127.046059 1446.865479,130.976318 
	C1440.082520,143.208817 1433.264526,155.423340 1426.292236,167.548370 
	C1424.902466,169.965286 1422.769531,171.954987 1420.979370,174.141678 
	C1420.343750,173.990372 1419.708252,173.839081 1419.072754,173.687790 
	C1418.624023,171.558762 1418.175415,169.429718 1418.023071,167.080765 
	C1420.652954,170.341125 1422.192505,170.440964 1423.996094,166.686630 
	C1426.354126,161.778458 1427.575684,156.227707 1430.437500,151.677444 
	C1437.390747,140.622299 1445.009033,129.985504 1452.671265,119.066376 
z"/>
<path fill="#3E1A33" opacity="1.000000" stroke="none" 
	d="
M1417.933105,165.626678 
	C1416.989136,165.361130 1415.581299,164.949829 1415.101318,164.045837 
	C1410.897217,156.127579 1407.139893,147.958725 1402.654663,140.208755 
	C1400.351685,136.229248 1396.740112,133.025803 1393.892944,129.337997 
	C1389.875610,124.134163 1386.018799,118.806412 1382.136230,113.146393 
	C1391.774780,119.739883 1398.578247,129.211044 1404.553101,139.149460 
	C1409.576294,147.505142 1413.492920,156.526108 1417.933105,165.626678 
z"/>
<path fill="#3E1A33" opacity="1.000000" stroke="none" 
	d="
M1152.062500,364.399292 
	C1156.801270,365.463867 1155.166138,370.285248 1156.775513,373.388397 
	C1160.408569,380.393463 1162.925781,387.966858 1166.252930,395.144104 
	C1168.718140,400.462097 1171.780396,405.501404 1174.461914,410.723816 
	C1174.726685,411.239746 1174.188232,412.168152 1173.701294,413.096741 
	C1163.648926,398.279724 1157.153687,381.848602 1152.062500,364.399292 
z"/>
<path fill="#3E1A33" opacity="1.000000" stroke="none" 
	d="
M1169.187622,168.970245 
	C1169.281372,170.522934 1169.669678,172.562576 1168.931396,174.039001 
	C1167.394653,177.112442 1165.261597,179.887695 1163.006226,182.755890 
	C1164.749878,178.218231 1166.860840,173.710190 1169.187622,168.970245 
z"/>
<path fill="#3E1A33" opacity="1.000000" stroke="none" 
	d="
M381.272766,435.249573 
	C386.578156,434.052155 385.956268,438.445709 386.845764,441.862244 
	C384.980988,440.028687 383.173309,437.798492 381.272766,435.249573 
z"/>
<path fill="#3E1A33" opacity="1.000000" stroke="none" 
	d="
M1162.403931,182.860626 
	C1162.223633,184.338608 1161.755005,186.007767 1160.876221,187.606812 
	C1161.015869,186.041718 1161.565796,184.546768 1162.403931,182.860626 
z"/>
<path fill="#3E1A33" opacity="1.000000" stroke="none" 
	d="
M1160.235840,187.740982 
	C1160.063110,189.018250 1159.642944,190.482834 1158.857056,191.983780 
	C1158.990479,190.656189 1159.489380,189.292236 1160.235840,187.740982 
z"/>
<path fill="#3E1A33" opacity="1.000000" stroke="none" 
	d="
M539.526550,458.506714 
	C539.697388,457.561279 540.159180,456.434753 541.034485,455.350922 
	C540.904541,456.370972 540.361023,457.348297 539.526550,458.506714 
z"/>
<path fill="#EEE7E3" opacity="1.000000" stroke="none" 
	d="
M647.538513,237.061935 
	C641.642639,238.696411 635.836975,240.874374 629.835144,241.870285 
	C605.224670,245.953995 580.474609,246.673492 555.800415,242.709534 
	C543.066956,240.663910 530.514954,237.488724 517.280945,233.804153 
	C533.991333,214.322281 543.526428,192.146042 546.531189,167.554932 
	C549.555298,142.804733 546.680115,118.535011 537.748779,95.000572 
	C528.938232,71.784248 515.007385,52.085232 496.395782,33.838371 
	C500.171204,33.457592 502.402527,33.038010 504.634216,33.036156 
	C550.617126,32.997929 596.600220,33.050331 642.582886,32.931129 
	C646.563904,32.920811 647.826599,34.272758 647.784119,38.108566 
	C647.658752,49.429089 647.792847,60.752487 647.780273,72.990517 
	C647.686584,120.480522 647.639099,167.054764 647.588074,213.629013 
	C647.579529,221.440002 647.555481,229.250961 647.538513,237.061935 
z"/>
<path fill="#2D0722" opacity="1.000000" stroke="none" 
	d="
M647.966309,236.977814 
	C647.555481,229.250961 647.579529,221.440002 647.588074,213.629013 
	C647.639099,167.054764 647.686584,120.480522 647.864014,73.452629 
	C648.661072,74.970848 649.908691,76.941490 649.912842,78.914757 
	C650.020081,129.651108 649.997864,180.387756 649.995667,231.124344 
	C649.995605,232.288452 650.158875,233.499374 649.889648,234.601395 
	C649.685364,235.437378 648.913452,236.134659 647.966309,236.977814 
z"/>
</svg>